# AST/ASF file generated using VICON BodyLanguage
# -----------------------------------------------
:version 1.10
:name VICON
:units
  mass 1.0
  length 0.45
  angle deg
:documentation
   .ast/.asf automatically generated from VICON data using
   VICON BodyBuilder and BodyLanguage model FoxedUp or BRILLIANT.MOD
:root
   order TX TY TZ RX RY RZ
   axis XYZ
   position 0 0 0  
   orientation 0 0 0 
:bonedata
  begin
     id 1 
     name lhipjoint
     direction 0.700308 -0.549349 0.455834 
     length 2.59063 
     axis 0 0 0  XYZ
  end
  begin
     id 2 
     name lfemur
     direction 0.34202 -0.939693 0  
     length 6.31066  
     axis 0 0 20  XYZ
    dof rx ry rz
    limits (-160.0 20.0)
           (-70.0 70.0)
           (-60.0 70.0)
  end
  begin
     id 3 
     name ltibia
     direction 0.34202 -0.939693 0   
     length 7.36093   
     axis 0 0 20   XYZ
    dof rx
    limits (-10.0 170.0)
  end
  begin
     id 4 
     name lfoot
     direction 0.0905332 -0.248738 0.96433   
     length 2.0233   
     axis -90 7.62852e-016 20   XYZ
    dof rx rz
    limits (-45.0 90.0)
           (-70.0 20.0)
  end
  begin
     id 5 
     name ltoes
     direction 1.53573e-011 -4.21855e-011 1   
     length 1.01524   
     axis -90 7.62852e-016 20   XYZ
    dof rx
    limits (-90.0 20.0)
  end
  begin
     id 6 
     name rhipjoint
     direction -0.61416 -0.607328 0.503944   
     length 2.34332  
     axis 0 0 0  XYZ 
  end
  begin
     id 7 
     name rfemur
     direction -0.34202 -0.939693 0   
     length 6.58548   
     axis 0 0 -20   XYZ
    dof rx ry rz
    limits (-160.0 20.0)
           (-70.0 70.0)
           (-70.0 60.0)
  end
  begin
     id 8 
     name rtibia
     direction -0.34202 -0.939693 0   
     length 7.20707   
     axis 0 0 -20   XYZ
    dof rx
    limits (-10.0 170.0)
 end
 begin
     id 9 
     name rfoot
     direction -0.136772 -0.375778 0.916561   
     length 1.92184  
     axis -90 -7.62852e-016 -20   XYZ
    dof rx rz
    limits (-45.0 90.0)
           (-20.0 70.0)
  end
  begin
     id 10 
     name rtoes
     direction -1.53535e-011 -4.21828e-011 1   
     length 0.951089   
     axis -90 -7.62852e-016 -20   XYZ
    dof rx
    limits (-90.0 20.0)
  end
  begin
     id 11 
     name lowerback
     direction -0.0444974 0.988086 -0.147332   
     length 1.9609   
     axis 0 0 0   XYZ
    dof rx ry rz
    limits (-20.0 45.0)
           (-30.0 30.0)
           (-30.0 30.0)
  end
  begin
     id 12 
     name upperback
     direction 0.00613146 0.999513 0.0306081   
     length 1.94944   
     axis 0 0 0   XYZ
    dof rx ry rz
    limits (-20.0 45.0)
           (-30.0 30.0)
           (-30.0 30.0)
  end
  begin
     id 13 
     name thorax
     direction 0.0254621 0.994518 0.101418   
     length 2.0119   
     axis 0 0 0   XYZ
    dof rx ry rz
    limits (-20.0 45.0)
           (-30.0 30.0)
           (-30.0 30.0)
  end
  begin
     id 14 
     name lowerneck
     direction 0.0168698 0.977854 0.208608   
     length 1.6375   
     axis 0 0 0   XYZ
    dof rx ry rz
    limits (-20.0 45.0)
           (-30.0 30.0)
           (-30.0 30.0)
  end
  begin
     id 15 
     name upperneck
     direction -0.0283988 0.989338 -0.142843   
     length 1.6851   
     axis 0 0 0   XYZ
    dof rx ry rz
    limits (-20.0 45.0)
           (-30.0 30.0)
           (-30.0 30.0)
  end
  begin
     id 16
     name head
     direction -0.0129422 0.99741 -0.0707489  
     length 1.69029  
     axis 0 0 0   XYZ
    dof rx ry rz
    limits (-20.0 45.0)
           (-30.0 30.0)
           (-30.0 30.0)
  end
  begin
     id 17 
     name lclavicle
     direction 0.820295 0.564628 -0.0911715  
     length 3.16484  
     axis 0 0 0   XYZ
    dof ry rz
    limits (-20.0 10.0)
           (0.0 20.0)
  end
  begin
     id 18 
     name lhumerus
     direction 1 -4.48969e-011 1.00186e-027   
     length 5.17853   
     axis 180 -30 -90   XYZ
    dof rx ry rz
    limits (-60.0 90.0)
           (-90.0 90.0)
           (-90.0 90.0)
  end
  begin
     id 19
     name lradius
     direction 1 -4.48966e-011 -1.52922e-027   
     length 3.40399   
     axis 180 -30 -90   XYZ
    dof rx
    limits (-10.0 170.0)
  end
  begin
     id 20
     name lwrist
     direction 1 -4.48981e-011 -3.80893e-027   
     length 1.70199   
     axis 1.1049e-015 90 90   XYZ
    dof ry
    limits (-180.0 0.0)
 end
  begin
     id 21 
     name lhand
     direction 1 -4.48957e-011 -7.61786e-027   
     length 0.708964   
     axis 4.86085e-015 90 90   XYZ
    dof rx rz
    limits (-90.0 90.0)
           (-45.0 45.0)
  end
  begin
     id 22 
     name lfingers
     direction 1 -4.48929e-011 -1.52357e-026   
     length 0.571585   
     axis 9.7217e-015 90 90   XYZ
    dof rx
    limits (0.0 90.0)
  end
  begin
     id 23
     name lthumb
     direction 0.707107 -6.34905e-011 0.707107   
     length 0.820685   
     axis -90 45 2.85299e-015   XYZ
    dof rx rz
    limits (-45.0 45.0)
           (-45.0 45.0)
  end
  begin
     id 24 
     name rclavicle
     direction -0.858602 0.463947 -0.218075   
     length 3.35137  
     axis 0 0 0   XYZ 
    dof ry rz
    limits (-10.0 20.0)
           (-20.0 0.0)
  end
  begin
     id 25 
     name rhumerus
     direction -1 -4.48969e-011 -1.98511e-027  
     length 5.42351   
     axis 180 30 90   XYZ
    dof rx ry rz
    limits (-90.0 60.0)
           (-90.0 90.0)
           (-90.0 90.0)
  end
  begin
     id 26 
     name rradius
     direction -1 -4.48961e-011 -2.82624e-027   
     length 3.42066   
     axis 180 30 90   XYZ
    dof rx
    limits (-10.0 170.0)
  end
  begin
     id 27 
     name rwrist
     direction -1 -4.48966e-011 -3.80893e-027   
     length 1.71033   
     axis 1.1049e-015 -90 -90   XYZ
    dof ry
    limits (-180.0 0.0)
  end
  begin
     id 28
     name rhand
     direction -1 -4.48964e-011 -7.61786e-027   
     length 0.743608   
     axis 4.86085e-015 -90 -90   XYZ
    dof rx rz
    limits (-90.0 90.0)
           (-45.0 45.0)
  end
  begin
     id 29
     name rfingers
     direction -1 -4.48961e-011 -1.52357e-026   
     length 0.599516   
     axis 9.7217e-015 -90 -90   XYZ
    dof rx
    limits (0.0 90.0)
  end
  begin
     id 30
     name rthumb
     direction -0.707107 -6.34913e-011 0.707107   
     length 0.860789   
     axis -90 -45 -2.85299e-015   XYZ
    dof rx rz
    limits (-45.0 45.0)
           (-45.0 45.0)
  end
:hierarchy
  begin
    root lhipjoint rhipjoint lowerback
    lhipjoint lfemur
    lfemur ltibia
    ltibia lfoot
    lfoot ltoes
    rhipjoint rfemur
    rfemur rtibia
    rtibia rfoot
    rfoot rtoes
    lowerback upperback
    upperback thorax
    thorax lowerneck lclavicle rclavicle
    lowerneck upperneck
    upperneck head
    lclavicle lhumerus
    lhumerus lradius
    lradius lwrist
    lwrist lhand lthumb
    lhand lfingers
    rclavicle rhumerus
    rhumerus rradius
    rradius rwrist
    rwrist rhand rthumb
    rhand rfingers
  end

#!OML:ASF E:\mmandel\Project 1\Capture day 1\Session 2\Subject.ASF
:FULLY-SPECIFIED
:DEGREES
674
root 7.7097 16.392 -3.70636 319.068 83.6426 307.82
lowerback 15.7624 2.00282 -8.08837
upperback 3.23334 1.39178 -1.65347
thorax -5.51448 0.86941 2.52331
lowerneck -18.5248 0.011199 1.1764
upperneck 11.7495 -0.548861 1.68654
head 6.6067 -0.0537733 0.297307
rclavicle -2.38542e-015 -4.13472e-014
rhumerus -31.3326 5.08603 -85.2995
rradius 31.0845
rwrist -372.807
rhand -7.10959 30.3901
rfingers 7.12502
rthumb 18.7654 1.27525
lclavicle -2.38542e-015 -4.13472e-014
lhumerus -26.5077 -11.801 75.295
lradius 42.5941
lwrist 37.4631
lhand -23.4568 -30.9559
lfingers 7.12502
lthumb 3.00197 -0.99724
rfemur -24.9706 -7.9772 12.8849
rtibia 40.6909
rfoot -21.8033 -14.0085
rtoes -14.1023
lfemur -27.3843 7.79912 -14.2748
ltibia 33.1667
lfoot -16.0996 8.19448
ltoes 3.26903
675
root 7.72284 16.3825 -3.70856 317.936 83.5719 306.692
lowerback 15.8581 1.94862 -8.09717
upperback 3.206 1.30969 -1.59503
thorax -5.58887 0.832333 2.60524
lowerneck -18.2945 0.137639 1.08042
upperneck 11.1872 -0.365522 1.87006
head 6.38715 0.0399786 0.39059
rclavicle -3.97569e-015 -1.43125e-014
rhumerus -31.5068 5.21395 -85.3172
rradius 31.5524
rwrist -372.596
rhand -6.98799 30.7813
rfingers 7.12502
rthumb 18.8824 1.67784
lclavicle -3.97569e-015 -1.43125e-014
lhumerus -26.4394 -12.0967 75.0313
lradius 42.9518
lwrist 37.6565
lhand -23.4533 -30.758
lfingers 7.12502
lthumb 3.00532 -0.799427
rfemur -25.1175 -7.90833 12.8608
rtibia 40.2161
rfoot -21.5081 -14.4178
rtoes -15.2488
lfemur -27.5471 7.91925 -14.1511
ltibia 33.5542
lfoot -16.2766 8.0393
ltoes 3.55137
676
root 7.73545 16.3724 -3.70858 316.679 83.4813 305.452
lowerback 15.9805 1.94299 -7.95395
upperback 3.20924 1.31356 -1.61247
thorax -5.64951 0.834119 2.50287
lowerneck -18.2378 0.188289 1.08282
upperneck 10.7365 -0.31256 2.05302
head 6.23312 0.0773776 0.453671
rclavicle -1.66979e-014 5.08889e-014
rhumerus -31.6313 5.10166 -85.3765
rradius 31.9948
rwrist -372.443
rhand -6.90186 31.0884
rfingers 7.12502
rthumb 18.9652 1.99302
lclavicle -1.66979e-014 5.08889e-014
lhumerus -26.1463 -12.574 74.7017
lradius 43.211
lwrist 38.0396
lhand -23.5656 -30.5767
lfingers 7.12502
lthumb 2.89688 -0.616667
rfemur -25.2091 -7.77572 12.832
rtibia 39.6916
rfoot -21.2353 -14.5459
rtoes -15.7643
lfemur -27.7279 8.22928 -14.0267
ltibia 33.9793
lfoot -16.4487 7.71108
ltoes 3.45371
677
root 7.74702 16.3601 -3.70631 315.262 83.3493 304.036
lowerback 16.0705 1.97913 -7.76695
upperback 3.22701 1.38441 -1.62488
thorax -5.68286 0.866575 2.36796
lowerneck -18.2083 0.0940552 1.12768
upperneck 10.3786 -0.463713 2.21838
head 6.11499 0.0170557 0.483025
rclavicle 2.38542e-015 -2.8625e-014
rhumerus -31.728 4.84753 -85.3711
rradius 32.5134
rwrist -372.313
rhand -6.72601 31.2282
rfingers 7.12502
rthumb 19.1343 2.14941
lclavicle 2.38542e-015 -2.8625e-014
lhumerus -25.7455 -12.9591 74.3885
lradius 43.2386
lwrist 38.116
lhand -23.559 -30.5501
lfingers 7.12502
lthumb 2.90323 -0.590097
rfemur -25.3058 -7.56368 12.8466
rtibia 39.1413
rfoot -21.0988 -14.4525
rtoes -15.8985
lfemur -27.9379 8.52316 -13.8345
ltibia 34.3981
lfoot -16.6385 7.42174
ltoes 3.38738
678
root 7.75582 16.3469 -3.70194 314.843 83.2613 303.63
lowerback 16.1455 1.99595 -7.82031
upperback 3.2578 1.39505 -1.59895
thorax -5.69307 0.872982 2.42211
lowerneck -18.2401 0.0855689 1.23477
upperneck 10.1199 -0.488069 2.17249
head 6.037 0.0034069 0.44814
rclavicle -7.95139e-016 3.18055e-015
rhumerus -31.7238 4.77206 -85.3287
rradius 32.9755
rwrist -372.042
rhand -6.62757 31.3051
rfingers 7.12502
rthumb 19.229 2.23578
lclavicle -7.95139e-016 3.18055e-015
lhumerus -25.3813 -13.1321 74.1157
lradius 43.2505
lwrist 38.1517
lhand -23.5266 -30.4754
lfingers 7.12502
lthumb 2.93452 -0.515833
rfemur -25.4191 -7.27621 12.7372
rtibia 38.6025
rfoot -21.0197 -14.3182
rtoes -15.7757
lfemur -28.121 8.7335 -13.7308
ltibia 34.7933
lfoot -16.7205 7.254
ltoes 3.36782
679
root 7.75978 16.3363 -3.69774 315.686 83.2376 304.511
lowerback 16.3099 2.03562 -7.9918
upperback 3.3117 1.40788 -1.62535
thorax -5.72776 0.883525 2.48444
lowerneck -18.3667 0.078633 1.24537
upperneck 9.85898 -0.502011 2.22745
head 5.97423 0.000184328 0.462435
rclavicle 1.59028e-015 -1.11319e-014
rhumerus -31.7191 4.72946 -85.2989
rradius 33.4111
rwrist -371.729
rhand -6.90289 31.6259
rfingers 7.12502
rthumb 18.9642 2.53037
lclavicle 1.59028e-015 -1.11319e-014
lhumerus -24.948 -13.4636 73.8331
lradius 43.2476
lwrist 38.3392
lhand -23.5532 -30.3851
lfingers 7.12502
lthumb 2.90885 -0.425167
rfemur -25.5724 -6.91938 12.4573
rtibia 38.1072
rfoot -20.8745 -14.2677
rtoes -15.9432
lfemur -28.2356 8.86459 -13.7704
ltibia 35.1471
lfoot -16.8027 7.21137
ltoes 3.16299
680
root 7.76294 16.3273 -3.69483 315.863 83.162 304.66
lowerback 16.5057 2.05725 -7.97591
upperback 3.29874 1.4172 -1.66525
thorax -5.84758 0.892275 2.42593
lowerneck -18.3173 0.0231013 1.16356
upperneck 9.4404 -0.573637 2.46126
head 5.83421 -0.0224817 0.542233
rclavicle -2.38542e-015 1.74931e-014
rhumerus -31.8511 4.72645 -85.3002
rradius 33.9585
rwrist -371.664
rhand -7.17296 31.8506
rfingers 7.12502
rthumb 18.7045 2.72989
lclavicle -2.38542e-015 1.74931e-014
lhumerus -24.5977 -13.9259 73.532
lradius 43.14
lwrist 38.4229
lhand -23.4464 -30.4886
lfingers 7.12502
lthumb 3.01199 -0.530113
rfemur -25.8476 -6.62538 12.3014
rtibia 37.6572
rfoot -20.717 -14.3472
rtoes -16.6499
lfemur -28.3857 8.93649 -13.7116
ltibia 35.4488
lfoot -16.9458 7.21695
ltoes 2.98861
681
root 7.76766 16.3156 -3.68923 315.798 83.107 304.539
lowerback 16.647 2.03408 -8.00808
upperback 3.26807 1.36455 -1.66928
thorax -5.95244 0.87118 2.44738
lowerneck -18.1685 0.0303456 1.21227
upperneck 8.90231 -0.554418 2.4588
head 5.6384 -0.0182472 0.534263
rclavicle 1.59028e-015 1.43125e-014
rhumerus -31.9636 4.90071 -85.3224
rradius 34.6367
rwrist -371.736
rhand -7.05654 31.7787
rfingers 7.12502
rthumb 18.8164 2.66878
lclavicle 1.59028e-015 1.43125e-014
lhumerus -24.3484 -14.2286 73.2479
lradius 43.0569
lwrist 38.3382
lhand -23.4591 -30.5292
lfingers 7.12502
lthumb 2.99971 -0.570566
rfemur -26.1609 -6.40033 12.1734
rtibia 37.2362
rfoot -20.6029 -14.3686
rtoes -17.4912
lfemur -28.5483 9.01821 -13.6434
ltibia 35.7336
lfoot -17.0864 7.13767
ltoes 2.6319
682
root 7.77317 16.3016 -3.67956 316.464 83.1354 305.247
lowerback 16.8648 2.04498 -8.2322
upperback 3.26204 1.3191 -1.66819
thorax -6.07605 0.858132 2.57933
lowerneck -17.6259 0.0659382 1.61967
upperneck 8.00461 -0.503008 1.97473
head 5.26334 -0.0309693 0.318143
rclavicle 5.56597e-015 1.59028e-015
rhumerus -32.0312 5.1099 -85.3129
rradius 35.24
rwrist -371.763
rhand -7.00001 32.0097
rfingers 7.12502
rthumb 18.8708 2.90512
lclavicle 5.56597e-015 1.59028e-015
lhumerus -24.1061 -14.462 72.9903
lradius 42.9596
lwrist 38.1507
lhand -23.446 -30.5782
lfingers 7.12502
lthumb 3.01234 -0.619778
rfemur -26.3425 -6.14551 11.8946
rtibia 36.8049
rfoot -20.537 -14.2015
rtoes -17.5565
lfemur -28.6402 9.31227 -13.7208
ltibia 36.0518
lfoot -17.2385 6.8579
ltoes 2.24215
683
root 7.77701 16.2897 -3.6693 316.411 83.1049 305.237
lowerback 17.1367 2.06394 -8.3129
upperback 3.21298 1.29824 -1.66651
thorax -6.27576 0.857426 2.62419
lowerneck -16.6394 0.030765 2.37029
upperneck 6.8544 -0.572742 1.20114
head 4.73929 -0.117081 -0.0525465
rclavicle 3.18055e-015 2.38542e-014
rhumerus -32.1543 5.30181 -85.3483
rradius 35.7164
rwrist -371.853
rhand -7.25881 32.295
rfingers 7.12502
rthumb 18.6219 3.16631
lclavicle 3.18055e-015 2.38542e-014
lhumerus -24.0077 -14.8089 72.7479
lradius 42.9591
lwrist 38.1799
lhand -23.4497 -30.53
lfingers 7.12502
lthumb 3.00878 -0.571467
rfemur -26.4841 -5.91265 11.7192
rtibia 36.3399
rfoot -20.3761 -13.9047
rtoes -16.6719
lfemur -28.8028 9.67406 -13.6885
ltibia 36.4215
lfoot -17.3791 6.5095
ltoes 2.37824
684
root 7.77894 16.2786 -3.65888 315.392 83.0022 304.188
lowerback 17.2861 2.07379 -8.17074
upperback 3.22986 1.32377 -1.66023
thorax -6.33887 0.869263 2.54223
lowerneck -16.2871 0.115998 2.88998
upperneck 5.96637 -0.472871 0.603719
head 4.40322 -0.104502 -0.312653
rclavicle -2.62396e-014 4.13472e-014
rhumerus -32.1975 5.35227 -85.3707
rradius 36.3129
rwrist -371.96
rhand -7.61627 32.2834
rfingers 7.12502
rthumb 18.278 3.12211
lclavicle -2.62396e-014 4.13472e-014
lhumerus -23.7441 -15.2565 72.5013
lradius 42.9776
lwrist 38.3735
lhand -23.4842 -30.445
lfingers 7.12502
lthumb 2.97549 -0.486004
rfemur -26.6489 -5.66624 11.6903
rtibia 35.8398
rfoot -20.2966 -13.5774
rtoes -15.6737
lfemur -29.0686 9.77633 -13.4762
ltibia 36.8405
lfoot -17.5247 6.34846
ltoes 2.44835
685
root 7.78341 16.2695 -3.64626 314.703 82.9472 303.476
lowerback 17.4823 2.11541 -8.0616
upperback 3.2539 1.38101 -1.67159
thorax -6.42268 0.897861 2.45134
lowerneck -16.5571 0.0804527 2.96045
upperneck 5.75907 -0.529723 0.534462
head 4.37987 -0.135146 -0.349954
rclavicle -7.15625e-015 3.02153e-014
rhumerus -32.245 5.27458 -85.3304
rradius 37.0794
rwrist -372.074
rhand -7.77368 32.0039
rfingers 7.12502
rthumb 18.1266 2.82858
lclavicle -7.15625e-015 3.02153e-014
lhumerus -23.3368 -15.722 72.2365
lradius 42.798
lwrist 38.1844
lhand -23.246 -30.3789
lfingers 7.12502
lthumb 3.20558 -0.423257
rfemur -26.7995 -5.39604 11.6042
rtibia 35.3289
rfoot -20.3015 -13.4152
rtoes -15.6295
lfemur -29.3599 9.85093 -13.3317
ltibia 37.2858
lfoot -17.6898 6.26891
ltoes 2.78683
686
root 7.78671 16.2599 -3.63296 314.626 82.8582 303.348
lowerback 17.6257 2.13805 -8.05934
upperback 3.28879 1.40155 -1.65996
thorax -6.46461 0.909255 2.45502
lowerneck -16.8049 0.0362152 2.94446
upperneck 5.63236 -0.597649 0.633355
head 4.37881 -0.16156 -0.322129
rclavicle 3.18055e-015 1.59028e-015
rhumerus -32.1044 5.29619 -85.2707
rradius 37.6457
rwrist -372.149
rhand -7.63979 31.6151
rfingers 7.12502
rthumb 18.2554 2.45178
lclavicle 3.18055e-015 1.59028e-015
lhumerus -23.0028 -16.045 71.9398
lradius 42.5872
lwrist 37.7771
lhand -23.096 -30.3188
lfingers 7.12502
lthumb 3.35035 -0.365416
rfemur -27.0652 -5.09631 11.5114
rtibia 34.8571
rfoot -20.1237 -13.4984
rtoes -16.6543
lfemur -29.7014 10.2421 -13.2542
ltibia 37.7279
lfoot -17.8574 6.03031
ltoes 3.25035
687
root 7.78469 16.2443 -3.61868 314.782 82.7771 303.412
lowerback 17.6204 2.13885 -8.13187
upperback 3.38041 1.40152 -1.62094
thorax -6.36431 0.906916 2.53963
lowerneck -16.7006 -0.0127196 2.77522
upperneck 5.17514 -0.644451 1.01099
head 4.22181 -0.167514 -0.180591
rclavicle 1.74931e-014 2.38542e-014
rhumerus -31.7809 5.35217 -85.1675
rradius 37.9865
rwrist -372.128
rhand -7.65093 31.5011
rfingers 7.12502
rthumb 18.2447 2.3367
lclavicle 1.74931e-014 2.38542e-014
lhumerus -22.5992 -16.2921 71.665
lradius 42.3895
lwrist 37.6521
lhand -23.117 -30.4354
lfingers 7.12502
lthumb 3.33008 -0.481691
rfemur -27.4046 -4.78247 11.3741
rtibia 34.4491
rfoot -19.9611 -13.5153
rtoes -17.1825
lfemur -30.0329 10.638 -13.1959
ltibia 38.1469
lfoot -17.9917 5.66846
ltoes 3.18595
